
<svg version="1.1" xmlns="http://www.w3.org/2000/svg" width="768" height="768" viewBox="0 0 768 768">
<title></title>
<g id="icomoon-ignore">
</g>
<path d="M528 192h48v367.5q0 73.5-51 125.25t-124.5 51.75-125.25-51.75-51.75-125.25v-399q0-52.5 38.25-90.75t90.75-38.25 90 38.25 37.5 90.75v336q0 33-23.25 56.25t-56.25 23.25-57-23.25-24-56.25v-304.5h48v304.5q0 13.5 9.75 22.5t23.25 9 22.5-9 9-22.5v-336q0-33-23.25-57t-56.25-24-57 24-24 57v399q0 52.5 38.25 90.75t90.75 38.25 90-38.25 37.5-90.75v-367.5z"></path>
</svg>
